<svg height="480pt" viewBox="-20 0 480 480" width="480pt" xmlns="http://www.w3.org/2000/svg"><path d="m360 8h-248v80c0 8.835938-7.164062 16-16 16h-88v304c0 8.835938 7.164062 16 16 16h304v-96h-40l72-80 16 17.777344v-241.777344c0-8.835938-7.164062-16-16-16zm0 0" fill="#9bc9ff"/><g fill="#1e81ce"><path d="m296 272h-224c-4.417969 0-8-3.582031-8-8s3.582031-8 8-8h224c4.417969 0 8 3.582031 8 8s-3.582031 8-8 8zm0 0"/><path d="m264 320h-192c-4.417969 0-8-3.582031-8-8s3.582031-8 8-8h192c4.417969 0 8 3.582031 8 8s-3.582031 8-8 8zm0 0"/><path d="m296 368h-224c-4.417969 0-8-3.582031-8-8s3.582031-8 8-8h224c4.417969 0 8 3.582031 8 8s-3.582031 8-8 8zm0 0"/><path d="m360 0h-248c-.167969 0-.320312.078125-.480469.0898438-.648437.0429682-1.289062.1640622-1.910156.3593752-.25.078125-.496094.136719-.738281.238281-.847656.339844-1.625.828125-2.304688 1.441406l-104 96c-.710937.683594-1.285156 1.5-1.695312 2.398438-.117188.261718-.21875.527344-.304688.800781-.261718.714844-.417968 1.464844-.460937 2.222656 0 .167969-.105469.320313-.105469.488281v303.960938c0 13.253906 10.746094 24 24 24h270.71875c4.417969 0 8-3.582031 8-8s-3.582031-8-8-8h-270.71875c-4.417969 0-8-3.582031-8-8v-296h80c13.253906 0 24-10.746094 24-24v-72h240c4.417969 0 8 3.582031 8 8v198.71875c0 4.417969 3.582031 8 8 8s8-3.582031 8-8v-198.71875c0-13.253906-10.746094-24-24-24zm-256 88c0 4.417969-3.582031 8-8 8h-67.535156l75.535156-69.726562zm0 0"/><path d="m312 208h-240c-4.417969 0-8 3.582031-8 8s3.582031 8 8 8h240c4.417969 0 8-3.582031 8-8s-3.582031-8-8-8zm0 0"/><path d="m312 160h-176c-4.417969 0-8 3.582031-8 8s3.582031 8 8 8h176c4.417969 0 8-3.582031 8-8s-3.582031-8-8-8zm0 0"/><path d="m72 176h32c4.417969 0 8-3.582031 8-8s-3.582031-8-8-8h-32c-4.417969 0-8 3.582031-8 8s3.582031 8 8 8zm0 0"/><path d="m392 480h-64c-4.417969 0-8-3.582031-8-8v-136h-32c-3.160156 0-6.023438-1.859375-7.304688-4.746094-1.285156-2.886718-.753906-6.257812 1.359376-8.605468l72-80c1.554687-1.617188 3.703124-2.535157 5.945312-2.535157s4.390625.917969 5.945312 2.535157l72 80c2.113282 2.347656 2.644532 5.71875 1.359376 8.605468-1.28125 2.886719-4.144532 4.746094-7.304688 4.746094h-32v136c0 4.417969-3.582031 8-8 8zm-56-16h48v-136c0-4.417969 3.582031-8 8-8h22.039062l-54.039062-60.039062-54.039062 60.039062h22.039062c4.417969 0 8 3.582031 8 8zm0 0"/></g></svg>